ffmpeg version 2.8.15-0ubuntu0.16.04.1 Copyright (c) 2000-2018 the FFmpeg developers
  built with gcc 5.4.0 (Ubuntu 5.4.0-6ubuntu1~16.04.10) 20160609
  configuration: --prefix=/usr --extra-version=0ubuntu0.16.04.1 --build-suffix=-ffmpeg --toolchain=hardened --libdir=/usr/lib/x86_64-linux-gnu --incdir=/usr/include/x86_64-linux-gnu --cc=cc --cxx=g++ --enable-gpl --enable-shared --disable-stripping --disable-decoder=libopenjpeg --disable-decoder=libschroedinger --enable-avresample --enable-avisynth --enable-gnutls --enable-ladspa --enable-libass --enable-libbluray --enable-libbs2b --enable-libcaca --enable-libcdio --enable-libflite --enable-libfontconfig --enable-libfreetype --enable-libfribidi --enable-libgme --enable-libgsm --enable-libmodplug --enable-libmp3lame --enable-libopenjpeg --enable-libopus --enable-libpulse --enable-librtmp --enable-libschroedinger --enable-libshine --enable-libsnappy --enable-libsoxr --enable-libspeex --enable-libssh --enable-libtheora --enable-libtwolame --enable-libvorbis --enable-libvpx --enable-libwavpack --enable-libwebp --enable-libx265 --enable-libxvid --enable-libzvbi --enable-openal --enable-opengl --enable-x11grab --enable-libdc1394 --enable-libiec61883 --enable-libzmq --enable-frei0r --enable-libx264 --enable-libopencv
  libavutil      54. 31.100 / 54. 31.100
  libavcodec     56. 60.100 / 56. 60.100
  libavformat    56. 40.101 / 56. 40.101
  libavdevice    56.  4.100 / 56.  4.100
  libavfilter     5. 40.101 /  5. 40.101
  libavresample   2.  1.  0 /  2.  1.  0
  libswscale      3.  1.101 /  3.  1.101
  libswresample   1.  2.101 /  1.  2.101
  libpostproc    53.  3.100 / 53.  3.100
Input #0, image2pipe, from 'pipe:':
  Duration: N/A, bitrate: N/A
    Stream #0:0: Video: ppm, rgb24, 512x512, 12 fps, 12 tbr, 12 tbn, 12 tbc
[libx264 @ 0x1190c00] using cpu capabilities: MMX2 SSE2Fast SSSE3 SSE4.2 AVX
[libx264 @ 0x1190c00] profile High, level 2.2
[libx264 @ 0x1190c00] 264 - core 148 r2643 5c65704 - H.264/MPEG-4 AVC codec - Copyleft 2003-2015 - http://www.videolan.org/x264.html - options: cabac=1 ref=3 deblock=1:0:0 analyse=0x3:0x113 me=hex subme=7 psy=1 psy_rd=1.00:0.00 mixed_ref=1 me_range=16 chroma_me=1 trellis=1 8x8dct=1 cqm=0 deadzone=21,11 fast_pskip=1 chroma_qp_offset=-2 threads=12 lookahead_threads=2 sliced_threads=0 nr=0 decimate=1 interlaced=0 bluray_compat=0 constrained_intra=0 bframes=3 b_pyramid=2 b_adapt=1 b_bias=0 direct=1 weightb=1 open_gop=0 weightp=2 keyint=250 keyint_min=12 scenecut=40 intra_refresh=0 rc_lookahead=40 rc=abr mbtree=1 bitrate=400 ratetol=1.0 qcomp=0.60 qpmin=0 qpmax=69 qpstep=4 ip_ratio=1.40 aq=1:1.00
Output #0, mp4, to './mission_records/a0ff75b0-7e81-418c-a173-611c3277d426/video.mp4':
  Metadata:
    encoder         : Lavf56.40.101
    Stream #0:0: Video: h264 (libx264) ([33][0][0][0] / 0x0021), yuv420p, 512x512, q=-1--1, 400 kb/s, 12 fps, 12288 tbn, 12 tbc
    Metadata:
      encoder         : Lavc56.60.100 libx264
Stream mapping:
  Stream #0:0 -> #0:0 (ppm (native) -> h264 (libx264))
frame=   10 fps=0.0 q=-1.0 Lsize=      40kB time=00:00:00.66 bitrate= 492.5kbits/s    
video:39kB audio:0kB subtitle:0kB other streams:0kB global headers:0kB muxing overhead: 2.379824%
[libx264 @ 0x1190c00] frame I:1     Avg QP:21.62  size: 35496
[libx264 @ 0x1190c00] frame P:3     Avg QP:23.53  size:   103
[libx264 @ 0x1190c00] frame B:6     Avg QP:25.70  size:   596
[libx264 @ 0x1190c00] consecutive B-frames: 20.0%  0.0%  0.0% 80.0%
[libx264 @ 0x1190c00] mb I  I16..4:  5.3% 17.4% 77.3%
[libx264 @ 0x1190c00] mb P  I16..4:  0.0%  0.0%  0.0%  P16..4:  2.1%  0.1%  0.0%  0.0%  0.0%    skip:97.8%
[libx264 @ 0x1190c00] mb B  I16..4:  0.3%  0.0%  0.0%  B16..8:  6.4%  3.6%  0.8%  direct: 0.9%  skip:88.0%  L0:47.6% L1:51.4% BI: 0.9%
[libx264 @ 0x1190c00] final ratefactor: 24.05
[libx264 @ 0x1190c00] 8x8 transform intra:17.1% inter:21.2%
[libx264 @ 0x1190c00] coded y,uvDC,uvAC intra: 84.5% 87.9% 78.8% inter: 1.7% 0.3% 0.0%
[libx264 @ 0x1190c00] i16 v,h,dc,p:  4% 82% 10%  4%
[libx264 @ 0x1190c00] i8 v,h,dc,ddl,ddr,vr,hd,vl,hu: 25% 16% 19%  3%  7% 14%  8%  3%  6%
[libx264 @ 0x1190c00] i4 v,h,dc,ddl,ddr,vr,hd,vl,hu: 21% 48%  9%  3%  4%  4%  4%  4%  3%
[libx264 @ 0x1190c00] i8c dc,h,v,p: 38% 43% 12%  6%
[libx264 @ 0x1190c00] Weighted P-Frames: Y:0.0% UV:0.0%
[libx264 @ 0x1190c00] ref B L1: 93.9%  6.1%
[libx264 @ 0x1190c00] kb/s:378.07
Exiting normally, received signal 2.
